<svg width="1200" height="900" viewBox="0 0 1200 900" fill="none" xmlns="http://www.w3.org/2000/svg">
  <defs>
    <linearGradient id="bg" x1="0" y1="0" x2="1200" y2="900" gradientUnits="userSpaceOnUse">
      <stop stop-color="#040506"/>
      <stop offset="0.56" stop-color="#111315"/>
      <stop offset="1" stop-color="#030405"/>
    </linearGradient>
    <linearGradient id="line" x1="150" y1="132" x2="1050" y2="742" gradientUnits="userSpaceOnUse">
      <stop stop-color="#69D8FF"/>
      <stop offset="0.48" stop-color="#42E8C4"/>
      <stop offset="1" stop-color="#D1B487"/>
    </linearGradient>
    <pattern id="stars" width="180" height="180" patternUnits="userSpaceOnUse">
      <circle cx="22" cy="26" r="1.4" fill="#F4EFE7" fill-opacity="0.45"/>
      <circle cx="132" cy="74" r="1.4" fill="#69D8FF" fill-opacity="0.42"/>
      <circle cx="82" cy="142" r="1.2" fill="#D1B487" fill-opacity="0.48"/>
    </pattern>
    <filter id="shadow" x="-40" y="-40" width="1280" height="980" filterUnits="userSpaceOnUse">
      <feDropShadow dx="0" dy="34" stdDeviation="34" flood-color="#000000" flood-opacity="0.42"/>
    </filter>
  </defs>
  <rect width="1200" height="900" fill="url(#bg)"/>
  <rect width="1200" height="900" fill="url(#stars)"/>
  <g filter="url(#shadow)">
    <rect x="112" y="92" width="976" height="716" rx="32" fill="#0A0B0C" fill-opacity="0.86" stroke="#F4EFE7" stroke-opacity="0.12"/>
    <path d="M208 620C330 490 420 528 518 388C608 258 724 282 804 380C880 474 944 432 1010 304" stroke="url(#line)" stroke-width="5" stroke-linecap="round" stroke-opacity="0.72"/>
    <circle cx="208" cy="620" r="16" fill="#69D8FF"/>
    <circle cx="518" cy="388" r="16" fill="#42E8C4"/>
    <circle cx="804" cy="380" r="16" fill="#D1B487"/>
    <circle cx="1010" cy="304" r="16" fill="#A77F4E"/>
    <rect x="172" y="146" width="318" height="150" rx="18" fill="#F4EFE7" fill-opacity="0.07" stroke="#F4EFE7" stroke-opacity="0.12"/>
    <path d="M212 202H426" stroke="#D1B487" stroke-opacity="0.5" stroke-width="12" stroke-linecap="round"/>
    <path d="M212 246H382" stroke="#F4EFE7" stroke-opacity="0.18" stroke-width="12" stroke-linecap="round"/>
    <rect x="536" y="146" width="492" height="150" rx="18" fill="#F4EFE7" fill-opacity="0.07" stroke="#F4EFE7" stroke-opacity="0.12"/>
    <rect x="580" y="192" width="72" height="58" rx="10" fill="#69D8FF" fill-opacity="0.22"/>
    <rect x="684" y="192" width="72" height="58" rx="10" fill="#42E8C4" fill-opacity="0.18"/>
    <rect x="788" y="192" width="72" height="58" rx="10" fill="#A77F4E" fill-opacity="0.34"/>
    <path d="M902 204H990" stroke="#F4EFE7" stroke-opacity="0.2" stroke-width="10" stroke-linecap="round"/>
    <path d="M902 244H962" stroke="#F4EFE7" stroke-opacity="0.12" stroke-width="10" stroke-linecap="round"/>
    <rect x="172" y="670" width="856" height="78" rx="16" fill="#F4EFE7" fill-opacity="0.065" stroke="#F4EFE7" stroke-opacity="0.1"/>
    <path d="M220 710H360" stroke="#F4EFE7" stroke-opacity="0.2" stroke-width="10" stroke-linecap="round"/>
    <path d="M420 710H610" stroke="#D1B487" stroke-opacity="0.48" stroke-width="10" stroke-linecap="round"/>
    <path d="M670 710H820" stroke="#42E8C4" stroke-opacity="0.3" stroke-width="10" stroke-linecap="round"/>
    <path d="M882 710H982" stroke="#F4EFE7" stroke-opacity="0.14" stroke-width="10" stroke-linecap="round"/>
  </g>
</svg>
