<svg width="1200" height="760" viewBox="0 0 1200 760" fill="none" xmlns="http://www.w3.org/2000/svg">
  <defs>
    <linearGradient id="bg" x1="0" y1="0" x2="1200" y2="760" gradientUnits="userSpaceOnUse">
      <stop stop-color="#030405"/>
      <stop offset="0.55" stop-color="#111315"/>
      <stop offset="1" stop-color="#030405"/>
    </linearGradient>
    <linearGradient id="bar" x1="252" y1="560" x2="928" y2="180" gradientUnits="userSpaceOnUse">
      <stop stop-color="#D1B487"/>
      <stop offset="0.55" stop-color="#F0D49B"/>
      <stop offset="1" stop-color="#A77F4E"/>
    </linearGradient>
    <pattern id="stars" width="170" height="170" patternUnits="userSpaceOnUse">
      <circle cx="28" cy="34" r="1.3" fill="#F4EFE7" fill-opacity="0.45"/>
      <circle cx="118" cy="92" r="1.3" fill="#69D8FF" fill-opacity="0.34"/>
    </pattern>
  </defs>
  <rect width="1200" height="760" fill="url(#bg)"/>
  <rect width="1200" height="760" fill="url(#stars)"/>
  <rect x="126" y="104" width="948" height="552" rx="30" fill="#F4EFE7" fill-opacity="0.065" stroke="#F4EFE7" stroke-opacity="0.12"/>
  <path d="M214 560H998" stroke="#F4EFE7" stroke-opacity="0.16" stroke-width="2"/>
  <path d="M214 456H998" stroke="#F4EFE7" stroke-opacity="0.08" stroke-width="2"/>
  <path d="M214 352H998" stroke="#F4EFE7" stroke-opacity="0.08" stroke-width="2"/>
  <path d="M214 248H998" stroke="#F4EFE7" stroke-opacity="0.08" stroke-width="2"/>
  <rect x="254" y="532" width="78" height="28" rx="8" fill="url(#bar)"/>
  <rect x="388" y="494" width="78" height="66" rx="8" fill="url(#bar)"/>
  <rect x="522" y="446" width="78" height="114" rx="8" fill="url(#bar)"/>
  <rect x="656" y="382" width="78" height="178" rx="8" fill="url(#bar)"/>
  <rect x="790" y="296" width="78" height="264" rx="8" fill="url(#bar)"/>
  <rect x="924" y="202" width="78" height="358" rx="8" fill="url(#bar)"/>
  <path d="M254 526C372 474 452 452 560 398C696 330 796 286 1002 170" stroke="#42E8C4" stroke-opacity="0.55" stroke-width="5" stroke-linecap="round"/>
  <circle cx="560" cy="398" r="13" fill="#42E8C4"/>
  <circle cx="1002" cy="170" r="13" fill="#D1B487"/>
  <text x="218" y="202" fill="#F4EFE7" font-family="Arial, sans-serif" font-size="44" font-weight="700">SIP</text>
  <text x="218" y="248" fill="#D1B487" font-family="Arial, sans-serif" font-size="24" font-weight="700">step-up growth</text>
</svg>
