<svg width="1200" height="760" viewBox="0 0 1200 760" fill="none" xmlns="http://www.w3.org/2000/svg">
  <defs>
    <linearGradient id="bg" x1="0" y1="0" x2="1200" y2="760" gradientUnits="userSpaceOnUse">
      <stop stop-color="#050607"/>
      <stop offset="0.52" stop-color="#151719"/>
      <stop offset="1" stop-color="#030405"/>
    </linearGradient>
    <linearGradient id="gold" x1="150" y1="100" x2="980" y2="640" gradientUnits="userSpaceOnUse">
      <stop stop-color="#F0D49B"/>
      <stop offset="1" stop-color="#A77F4E"/>
    </linearGradient>
    <pattern id="grid" width="72" height="72" patternUnits="userSpaceOnUse">
      <path d="M72 0H0V72" stroke="#F4EFE7" stroke-opacity="0.055"/>
    </pattern>
    <filter id="shadow" x="-40" y="-40" width="1280" height="840" filterUnits="userSpaceOnUse">
      <feDropShadow dx="0" dy="30" stdDeviation="30" flood-color="#000" flood-opacity="0.38"/>
    </filter>
  </defs>
  <rect width="1200" height="760" fill="url(#bg)"/>
  <rect width="1200" height="760" fill="url(#grid)"/>
  <circle cx="164" cy="102" r="2" fill="#F4EFE7" opacity="0.6"/>
  <circle cx="1010" cy="146" r="2" fill="#69D8FF" opacity="0.6"/>
  <circle cx="980" cy="612" r="2" fill="#D1B487" opacity="0.62"/>
  <g filter="url(#shadow)">
    <rect x="112" y="106" width="976" height="548" rx="28" fill="#0A0B0C" fill-opacity="0.88" stroke="#F4EFE7" stroke-opacity="0.12"/>
    <rect x="164" y="160" width="468" height="354" rx="18" fill="#F4EFE7" fill-opacity="0.075" stroke="#F4EFE7" stroke-opacity="0.12"/>
    <path d="M210 230H560" stroke="#F4EFE7" stroke-opacity="0.24" stroke-width="16" stroke-linecap="round"/>
    <path d="M210 286H500" stroke="#F4EFE7" stroke-opacity="0.14" stroke-width="12" stroke-linecap="round"/>
    <path d="M210 334H536" stroke="#D1B487" stroke-opacity="0.5" stroke-width="12" stroke-linecap="round"/>
    <rect x="210" y="394" width="96" height="72" rx="12" fill="#69D8FF" fill-opacity="0.18"/>
    <rect x="332" y="394" width="96" height="72" rx="12" fill="#42E8C4" fill-opacity="0.15"/>
    <rect x="454" y="394" width="96" height="72" rx="12" fill="#A77F4E" fill-opacity="0.35"/>
    <rect x="700" y="160" width="326" height="354" rx="18" fill="#F4EFE7" fill-opacity="0.06" stroke="#F4EFE7" stroke-opacity="0.12"/>
    <path d="M760 252H964" stroke="#F4EFE7" stroke-opacity="0.18" stroke-width="12" stroke-linecap="round"/>
    <path d="M760 310H928" stroke="#F4EFE7" stroke-opacity="0.14" stroke-width="12" stroke-linecap="round"/>
    <path d="M760 394H950" stroke="url(#gold)" stroke-width="40" stroke-linecap="round"/>
    <text x="760" y="396" fill="#090A0B" font-family="Arial, sans-serif" font-size="58" font-weight="700">₹</text>
    <text x="830" y="408" fill="#090A0B" font-family="Arial, sans-serif" font-size="34" font-weight="700">2026</text>
    <rect x="180" y="562" width="840" height="46" rx="23" fill="#F4EFE7" fill-opacity="0.07"/>
    <path d="M218 585H420" stroke="#D1B487" stroke-width="8" stroke-linecap="round"/>
    <path d="M460 585H692" stroke="#69D8FF" stroke-opacity="0.35" stroke-width="8" stroke-linecap="round"/>
    <path d="M732 585H970" stroke="#F4EFE7" stroke-opacity="0.16" stroke-width="8" stroke-linecap="round"/>
  </g>
</svg>
