<svg width="1200" height="760" viewBox="0 0 1200 760" fill="none" xmlns="http://www.w3.org/2000/svg">
  <defs>
    <linearGradient id="bg" x1="0" y1="0" x2="1200" y2="760" gradientUnits="userSpaceOnUse">
      <stop stop-color="#030405"/>
      <stop offset="0.5" stop-color="#101214"/>
      <stop offset="1" stop-color="#030405"/>
    </linearGradient>
    <pattern id="grid" width="80" height="80" patternUnits="userSpaceOnUse">
      <path d="M80 0H0V80" stroke="#F4EFE7" stroke-opacity="0.05"/>
    </pattern>
  </defs>
  <rect width="1200" height="760" fill="url(#bg)"/>
  <rect width="1200" height="760" fill="url(#grid)"/>
  <circle cx="600" cy="378" r="206" stroke="#69D8FF" stroke-opacity="0.22" stroke-width="2"/>
  <circle cx="600" cy="378" r="132" stroke="#D1B487" stroke-opacity="0.28" stroke-width="2"/>
  <circle cx="600" cy="378" r="62" fill="#F4EFE7" fill-opacity="0.08" stroke="#F4EFE7" stroke-opacity="0.12"/>
  <path d="M600 172V584M394 378H806M454 232L746 524M746 232L454 524" stroke="#F4EFE7" stroke-opacity="0.08"/>
  <rect x="168" y="146" width="276" height="142" rx="18" fill="#F4EFE7" fill-opacity="0.075" stroke="#F4EFE7" stroke-opacity="0.12"/>
  <path d="M208 202H396" stroke="#D1B487" stroke-opacity="0.5" stroke-width="12" stroke-linecap="round"/>
  <path d="M208 244H350" stroke="#F4EFE7" stroke-opacity="0.16" stroke-width="10" stroke-linecap="round"/>
  <rect x="756" y="146" width="276" height="142" rx="18" fill="#F4EFE7" fill-opacity="0.075" stroke="#F4EFE7" stroke-opacity="0.12"/>
  <path d="M796 202H984" stroke="#69D8FF" stroke-opacity="0.42" stroke-width="12" stroke-linecap="round"/>
  <path d="M796 244H938" stroke="#F4EFE7" stroke-opacity="0.16" stroke-width="10" stroke-linecap="round"/>
  <rect x="226" y="492" width="276" height="142" rx="18" fill="#F4EFE7" fill-opacity="0.075" stroke="#F4EFE7" stroke-opacity="0.12"/>
  <path d="M266 548H454" stroke="#42E8C4" stroke-opacity="0.4" stroke-width="12" stroke-linecap="round"/>
  <path d="M266 590H408" stroke="#F4EFE7" stroke-opacity="0.16" stroke-width="10" stroke-linecap="round"/>
  <rect x="698" y="492" width="276" height="142" rx="18" fill="#F4EFE7" fill-opacity="0.075" stroke="#F4EFE7" stroke-opacity="0.12"/>
  <path d="M738 548H926" stroke="#D1B487" stroke-opacity="0.5" stroke-width="12" stroke-linecap="round"/>
  <path d="M738 590H880" stroke="#F4EFE7" stroke-opacity="0.16" stroke-width="10" stroke-linecap="round"/>
  <text x="518" y="396" fill="#D1B487" font-family="Arial, sans-serif" font-size="56" font-weight="700">AEO</text>
  <text x="522" y="450" fill="#69D8FF" font-family="Arial, sans-serif" font-size="34" font-weight="700">GEO</text>
</svg>
