<svg width="1200" height="760" viewBox="0 0 1200 760" fill="none" xmlns="http://www.w3.org/2000/svg">
  <defs>
    <linearGradient id="bg" x1="0" y1="0" x2="1200" y2="760" gradientUnits="userSpaceOnUse">
      <stop stop-color="#F6F1EA"/>
      <stop offset="0.55" stop-color="#FFFFFF"/>
      <stop offset="1" stop-color="#DED6CA"/>
    </linearGradient>
    <pattern id="grid" width="68" height="68" patternUnits="userSpaceOnUse">
      <path d="M68 0H0V68" stroke="#090A0B" stroke-opacity="0.045"/>
    </pattern>
    <filter id="shadow" x="-40" y="-40" width="1280" height="840" filterUnits="userSpaceOnUse">
      <feDropShadow dx="0" dy="28" stdDeviation="30" flood-color="#090A0B" flood-opacity="0.18"/>
    </filter>
  </defs>
  <rect width="1200" height="760" fill="url(#bg)"/>
  <rect width="1200" height="760" fill="url(#grid)"/>
  <g filter="url(#shadow)">
    <rect x="168" y="82" width="864" height="596" rx="30" fill="#090A0B" stroke="#090A0B" stroke-opacity="0.08"/>
    <rect x="222" y="132" width="382" height="474" rx="18" fill="#F4EFE7"/>
    <path d="M270 198H496" stroke="#151719" stroke-opacity="0.24" stroke-width="14" stroke-linecap="round"/>
    <path d="M270 254H548" stroke="#151719" stroke-opacity="0.14" stroke-width="10" stroke-linecap="round"/>
    <path d="M270 296H512" stroke="#151719" stroke-opacity="0.14" stroke-width="10" stroke-linecap="round"/>
    <path d="M270 380H542" stroke="#A77F4E" stroke-opacity="0.75" stroke-width="12" stroke-linecap="round"/>
    <path d="M270 430H492" stroke="#151719" stroke-opacity="0.13" stroke-width="10" stroke-linecap="round"/>
    <rect x="270" y="500" width="286" height="52" rx="10" fill="#A77F4E"/>
    <text x="302" y="535" fill="#090A0B" font-family="Arial, sans-serif" font-size="26" font-weight="700">GST 18%</text>
    <rect x="668" y="150" width="296" height="180" rx="18" fill="#F4EFE7" fill-opacity="0.08" stroke="#F4EFE7" stroke-opacity="0.12"/>
    <text x="720" y="248" fill="#D1B487" font-family="Arial, sans-serif" font-size="72" font-weight="700">₹</text>
    <path d="M804 220H908" stroke="#F4EFE7" stroke-opacity="0.24" stroke-width="12" stroke-linecap="round"/>
    <path d="M804 268H872" stroke="#F4EFE7" stroke-opacity="0.14" stroke-width="12" stroke-linecap="round"/>
    <rect x="668" y="382" width="296" height="180" rx="18" fill="#F4EFE7" fill-opacity="0.08" stroke="#F4EFE7" stroke-opacity="0.12"/>
    <path d="M720 442H908" stroke="#42E8C4" stroke-opacity="0.38" stroke-width="12" stroke-linecap="round"/>
    <path d="M720 492H884" stroke="#F4EFE7" stroke-opacity="0.18" stroke-width="12" stroke-linecap="round"/>
  </g>
</svg>
